<svg width="1169" height="910" viewBox="0 0 1169 910" fill="none" xmlns="http://www.w3.org/2000/svg">
<g opacity="0.5">
<g style="mix-blend-mode:overlay">
<path d="M1097.29 603.897C1197.38 493.799 1190.35 321.837 1081.68 220.221C1035.28 176.693 975.107 150.78 911.6 146.975C836.953 142.456 765.375 116.188 702.859 75.0346C519.007 -46.0346 267.88 -17.4468 115.975 152.219C-50.2352 337.955 -34.286 625.622 151.16 792.122C326.723 949.754 590.634 943.978 758.899 790.817C814.479 740.263 881.345 703.241 954.639 686.905C1009.63 674.664 1059.47 645.661 1097.29 603.897Z" stroke="#0D4A31" stroke-width="2" stroke-miterlimit="10"/>
</g>
<g style="mix-blend-mode:overlay">
<path d="M1071.07 598.338C1165.89 493.991 1159.25 331.043 1056.25 234.743C1012.28 193.493 955.254 168.939 895.069 165.34C824.289 161.135 756.529 136.172 697.275 97.1448C523.066 -17.5689 284.987 9.5207 141.106 170.294C-16.381 346.315 -1.27754 618.902 174.478 776.703C340.834 926.07 590.922 920.609 750.391 775.447C802.999 727.551 866.385 692.462 935.861 676.972C987.981 665.384 1035.22 637.91 1071.07 598.338V598.338Z" stroke="#0D4A31" stroke-width="2" stroke-miterlimit="10"/>
</g>
<g style="mix-blend-mode:overlay">
<path d="M1044.78 592.78C1134.36 494.185 1128.08 340.251 1030.79 249.267C989.247 210.312 935.388 187.119 878.543 183.706C811.653 179.647 747.639 156.134 691.671 119.281C527.08 10.8988 302.172 36.4901 166.241 188.394C17.4777 354.677 31.7596 612.209 197.801 761.286C354.877 902.389 591.215 897.241 741.863 760.102C791.572 714.84 851.478 681.709 917.111 667.065C966.326 656.104 1010.93 630.151 1044.78 592.78V592.78Z" stroke="#0D4A31" stroke-width="2" stroke-miterlimit="10"/>
</g>
<g style="mix-blend-mode:overlay">
<path d="M1018.58 587.198C1102.94 494.402 1097.02 349.458 1005.41 263.815C966.305 227.124 915.589 205.28 862.061 202.072C799.086 198.254 738.817 176.118 686.112 141.417C531.163 39.3657 319.401 63.4829 191.42 206.494C51.26 363.039 64.7685 605.515 221.095 745.868C369.061 878.779 591.504 873.946 733.404 744.757C780.188 702.129 836.615 670.931 898.382 657.157C944.718 646.826 986.712 622.385 1018.58 587.198V587.198Z" stroke="#0D4A31" stroke-width="2" stroke-miterlimit="10"/>
</g>
<g style="mix-blend-mode:overlay">
<path d="M992.335 581.616C1071.45 494.62 1065.89 358.641 979.986 278.315C943.316 243.873 895.746 223.354 845.529 220.317C786.469 216.741 729.946 195.983 680.527 163.432C535.196 67.7363 336.604 90.3311 216.549 224.45C85.1855 371.376 97.7999 598.798 244.412 730.427C383.17 855.024 591.815 850.481 724.822 729.388C768.731 689.442 821.629 660.154 879.482 647.225C922.988 637.575 962.423 614.649 992.335 581.616V581.616Z" stroke="#0D4A31" stroke-width="2" stroke-miterlimit="10"/>
</g>
<g style="mix-blend-mode:overlay">
<path d="M966.093 576.082C991.68 547.914 1008.79 513.088 1015.44 475.62C1022.09 438.152 1018.02 399.566 1003.69 364.312C989.363 329.058 965.365 298.57 934.461 276.364C903.558 254.158 867.008 241.138 829.026 238.804C773.88 235.445 721.103 216.064 674.947 185.64C539.233 96.2272 353.811 117.372 241.732 242.622C119.043 379.713 130.812 592.055 267.709 714.961C397.285 831.318 592.107 827.065 716.318 713.994C757.399 676.683 806.697 649.352 860.804 637.293C901.382 628.259 938.165 606.875 966.093 576.082V576.082Z" stroke="#0D4A31" stroke-width="2" stroke-miterlimit="10"/>
</g>
<g style="mix-blend-mode:overlay">
<path d="M939.848 570.5C963.626 544.333 979.523 511.978 985.706 477.167C991.89 442.355 988.106 406.505 974.794 373.75C961.481 340.996 939.18 312.672 910.464 292.045C881.748 271.418 847.786 259.328 812.496 257.17C761.265 254.052 712.233 236.049 669.363 207.824C607.026 167.081 532.156 150.019 458.321 159.727C384.486 169.436 316.572 205.274 266.887 260.746C152.898 388.123 163.845 585.41 291.052 699.592C411.445 807.684 592.42 803.721 707.811 698.674C745.871 664.02 791.762 638.622 842.026 627.53C879.751 619.106 913.931 599.179 939.848 570.5V570.5Z" stroke="#0D4A31" stroke-width="2" stroke-miterlimit="10"/>
</g>
<g style="mix-blend-mode:overlay">
<path d="M913.608 564.942C935.564 540.773 950.243 510.89 955.951 478.739C961.66 446.588 958.166 413.479 945.872 383.228C933.578 352.977 912.985 326.817 886.467 307.763C859.949 288.709 828.586 277.537 795.994 275.536C748.678 272.66 703.392 256.034 663.785 229.96C606.209 192.328 537.056 176.567 468.859 185.536C400.662 194.504 337.935 227.608 292.047 278.847C186.758 396.484 196.859 578.692 314.327 684.175C425.489 784.003 592.69 780.354 699.284 683.329C734.445 651.31 776.831 627.869 823.253 617.502C858.088 609.763 889.66 591.397 913.608 564.942V564.942Z" stroke="#0D4A31" stroke-width="2" stroke-miterlimit="10"/>
</g>
</g>
</svg>
