<svg xmlns="http://www.w3.org/2000/svg" xmlns:xlink="http://www.w3.org/1999/xlink" width="500" zoomAndPan="magnify" viewBox="0 0 375 374.999991" height="500" preserveAspectRatio="xMidYMid meet" version="1.0"><defs><clipPath id="cadc8ed8e0"><path d="M 95.207031 43.636719 L 369.09375 43.636719 L 369.09375 166.234375 L 95.207031 166.234375 Z M 95.207031 43.636719 " clip-rule="nonzero"/></clipPath></defs><path fill="#F0FAF6" d="M 48.246094 102.992188 L 139.78125 35.003906 C 142.429688 33.035156 146.054688 33.035156 148.703125 35.003906 L 241.964844 104.28125 L 244.539062 106.183594 L 244.539062 231.886719 C 244.539062 234.078125 242.765625 235.851562 240.574219 235.851562 L 43.921875 235.851562 L 43.921875 106.179688 L 48.246094 102.992188 " fill-opacity="1" fill-rule="nonzero"/><path stroke-linecap="round" transform="matrix(0.0209834, 0, 0, -0.0209725, 7.358468, 374.873121)" fill="none" stroke-linejoin="round" d="M 1948.759529 12964.229439 L 6311.218208 16206.193911 C 6437.434261 16300.066719 6610.190156 16300.066719 6736.406209 16206.193911 L 11181.147329 12902.7651 L 11303.826354 12812.058637 L 11303.826354 6817.981845 C 11303.826354 6713.678725 11219.123841 6629.118696 11114.874594 6629.118696 L 1742.681106 6629.118696 L 1742.681106 12812.244893 Z M 1948.759529 12964.229439 " stroke="#F8C140" stroke-width="346.603" stroke-opacity="1" stroke-miterlimit="10"/><path fill="#ffed92" d="M 275.105469 99.414062 L 232.207031 67.769531 L 232.207031 11.050781 C 232.207031 9.316406 230.800781 7.910156 229.070312 7.910156 L 206.191406 7.910156 C 204.457031 7.910156 203.050781 9.316406 203.050781 11.050781 L 203.050781 46.265625 L 147.75 5.46875 C 145.667969 3.933594 142.828125 3.933594 140.746094 5.46875 L 13.390625 99.414062 C 10.769531 101.347656 10.214844 105.039062 12.148438 107.65625 L 19.152344 117.140625 C 21.085938 119.761719 24.777344 120.316406 27.398438 118.382812 L 140.746094 34.773438 C 142.828125 33.238281 145.667969 33.238281 147.75 34.773438 L 261.097656 118.386719 C 263.71875 120.316406 267.410156 119.761719 269.34375 117.144531 L 276.347656 107.65625 C 278.28125 105.039062 277.726562 101.347656 275.105469 99.414062 " fill-opacity="1" fill-rule="nonzero"/><path stroke-linecap="round" transform="matrix(0.0227689, 0, 0, -0.0227572, 7.358468, 374.873121)" fill="none" stroke-linejoin="round" d="M 11759.318245 12104.451744 L 9875.239706 13494.982416 L 9875.239706 15987.329702 C 9875.239706 16063.541974 9813.477889 16125.164059 9737.476542 16125.164059 L 8732.646092 16125.164059 C 8656.473184 16125.164059 8594.711367 16063.541974 8594.711367 15987.329702 L 8594.711367 14439.911604 L 6165.927914 16232.444848 C 6074.486113 16300.074657 5949.761555 16300.074657 5858.319754 16232.444848 L 264.929422 12104.451744 C 149.812258 12019.31371 125.450652 11857.276807 210.373151 11742.100152 L 517.981311 11325.335744 C 602.90381 11210.330738 765.028579 11185.784894 880.145744 11270.751278 L 5858.319754 14944.732084 C 5949.761555 15012.361893 6074.486113 15012.361893 6165.927914 14944.732084 L 11144.273484 11270.751278 C 11259.219088 11185.784894 11421.515419 11210.159089 11506.437917 11325.335744 L 11814.046078 11742.100152 C 11898.968576 11857.276807 11874.43541 12019.31371 11759.318245 12104.451744 Z M 11759.318245 12104.451744 " stroke="#F8C140" stroke-width="319.41" stroke-opacity="1" stroke-miterlimit="10"/><path fill="#F0FAF6" d="M 136.207031 145.976562 L 227.742188 77.988281 C 230.386719 76.023438 234.011719 76.023438 236.664062 77.988281 L 329.921875 147.269531 L 332.496094 149.171875 L 332.496094 274.875 C 332.496094 277.0625 330.722656 278.835938 328.53125 278.835938 L 131.878906 278.835938 L 131.878906 149.167969 L 136.207031 145.976562 " fill-opacity="1" fill-rule="nonzero"/><path stroke-linecap="round" transform="matrix(0.0199471, 0, 0, -0.0199368, 7.358468, 374.873121)" fill="none" stroke-linejoin="round" d="M 6459.508708 11481.101379 L 11048.400678 14891.289608 C 11180.977807 14989.843166 11362.708347 14989.843166 11495.677137 14891.289608 L 16170.930279 11416.248043 L 16299.982462 11320.829389 L 16299.982462 5015.752846 C 16299.982462 4906.031191 16211.075495 4817.078278 16101.214684 4817.078278 L 6242.52871 4817.078278 L 6242.52871 11321.025321 Z M 6459.508708 11481.101379 " stroke="#F8C140" stroke-width="364.591" stroke-opacity="1" stroke-miterlimit="10"/><path fill="#ffed92" d="M 363.0625 142.398438 L 320.164062 110.753906 L 320.164062 54.035156 C 320.164062 52.304688 318.761719 50.898438 317.027344 50.898438 L 294.148438 50.898438 C 292.414062 50.898438 291.007812 52.304688 291.007812 54.035156 L 291.007812 89.25 L 235.707031 48.453125 C 233.625 46.917969 230.789062 46.917969 228.707031 48.453125 L 101.351562 142.398438 C 98.730469 144.332031 98.171875 148.023438 100.105469 150.640625 L 107.109375 160.128906 C 109.042969 162.746094 112.738281 163.300781 115.355469 161.371094 L 228.703125 77.757812 C 230.785156 76.222656 233.625 76.222656 235.707031 77.757812 L 349.054688 161.371094 C 351.675781 163.304688 355.367188 162.746094 357.304688 160.128906 L 364.308594 150.640625 C 366.242188 148.023438 365.683594 144.332031 363.0625 142.398438 " fill-opacity="1" fill-rule="nonzero"/><g clip-path="url(#cadc8ed8e0)"><path stroke-linecap="round" transform="matrix(0.0220169, 0, 0, -0.0220055, 7.358468, 374.873121)" fill="none" stroke-linejoin="round" d="M 16155.781795 10564.202474 L 14207.348987 12002.05188 L 14207.348987 14579.530074 C 14207.348987 14658.345523 14143.477578 14722.249941 14064.880262 14722.249941 L 13025.550505 14722.249941 C 12946.953188 14722.249941 12883.081779 14658.345523 12883.081779 14579.530074 L 12883.081779 12979.434452 L 10371.33863 14833.195112 C 10276.773461 14902.957435 10147.96612 14902.957435 10053.22353 14833.195112 L 4268.957785 10564.202474 C 4149.908576 10476.3339 4124.714854 10308.584802 4212.538041 10189.65158 L 4530.653141 9758.47427 C 4618.476328 9639.541048 4786.138776 9614.334305 4905.187985 9702.025368 L 10053.22353 13501.675557 C 10147.788699 13571.260368 10276.773461 13571.260368 10371.33863 13501.675557 L 15519.551596 9702.025368 C 15638.423384 9614.156793 15806.263253 9639.541048 15894.08644 9758.47427 L 16212.20154 10189.65158 C 16300.024727 10308.584802 16274.653584 10476.3339 16155.781795 10564.202474 Z M 16155.781795 10564.202474 " stroke="#F8C140" stroke-width="330.311" stroke-opacity="1" stroke-miterlimit="10"/></g><path fill="#ffed92" d="M 202.390625 362.21875 C 251.132812 322.421875 268.359375 269.265625 274.136719 230.695312 C 276.300781 216.238281 262.449219 204.988281 248.523438 209.457031 C 241.890625 211.585938 234.421875 212.78125 226.519531 212.78125 C 208.886719 212.78125 193.367188 199.464844 184.484375 189.882812 C 180.21875 185.28125 172.96875 185.28125 168.703125 189.882812 C 159.820312 199.46875 144.304688 212.78125 126.667969 212.78125 C 118.03125 212.78125 109.910156 211.351562 102.824219 208.835938 C 90.011719 204.285156 76.988281 215.140625 78.921875 228.59375 C 84.472656 267.226562 101.511719 321.476562 151.039062 362.191406 C 158.335938 368.1875 167.582031 371.308594 177.027344 371.238281 C 186.253906 371.171875 195.246094 368.054688 202.390625 362.21875 " fill-opacity="1" fill-rule="nonzero"/><path stroke-linecap="round" transform="matrix(0.0164998, 0, 0, -0.0164912, 7.358468, 374.873121)" fill="none" stroke-linejoin="round" d="M 11820.54605 767.339414 C 14774.662644 3180.79072 15818.712506 6404.09481 16168.85984 8742.932596 C 16300.017125 9619.345377 15460.515807 10301.763005 14616.516315 10030.785648 C 14214.521607 9901.455546 13761.863254 9828.97384 13282.926095 9828.97384 C 12214.017903 9828.97384 11273.662789 10636.694809 10735.302384 11217.732796 C 10476.775752 11496.526808 10037.138429 11496.526808 9778.848542 11217.732796 C 9240.488137 10636.457941 8300.133023 9828.97384 7231.224831 9828.97384 C 6707.779424 9828.97384 6215.347744 9915.667645 5786.127245 10068.210843 C 5009.363617 10344.399303 4220.052452 9686.142243 4337.241722 8870.130883 C 4673.657789 6527.503205 5706.343843 3237.875985 8708.283128 768.997493 C 9150.287911 405.404622 9710.90244 216.146835 10283.354269 220.410465 C 10842.548322 224.437226 11387.537615 413.458145 11820.54605 767.339414 Z M 11820.54605 767.339414 " stroke="#F8C140" stroke-width="440.77399" stroke-opacity="1" stroke-miterlimit="10"/><path fill="#F0FAF6" d="M 227.546875 250.628906 C 227.546875 250.628906 184 319.207031 183.804688 319.515625 C 178.980469 327.113281 169.523438 325.691406 164.261719 319.914062 C 153.84375 308.46875 143.355469 297.097656 132.847656 285.734375 C 128.496094 281.027344 128.824219 273.679688 133.570312 269.378906 L 134.882812 268.1875 C 139.578125 263.929688 146.835938 264.265625 151.125 268.941406 L 171.101562 290.734375 C 171.644531 291.449219 172.660156 291.511719 173.304688 290.871094 L 205.722656 238.402344 C 208.855469 233.328125 215.351562 231.484375 220.6875 234.152344 C 226.796875 237.207031 231.207031 244.867188 227.546875 250.628906 " fill-opacity="1" fill-rule="nonzero"/><path stroke-linecap="round" transform="matrix(0.0137337, 0, 0, -0.0137266, 7.358468, 374.873121)" fill="none" stroke-linejoin="round" d="M 16033.559937 9051.626055 C 16033.559937 9051.626055 12862.471556 4055.342039 12848.250154 4033.145185 C 12496.981506 3479.362153 11808.381186 3583.232043 11425.256596 4003.833956 C 10666.686975 4837.923405 9902.997648 5666.321353 9137.886181 6494.434726 C 8821.033328 6837.063077 8844.640857 7372.348731 9190.505371 7685.950428 L 9285.788769 7772.46124 C 9627.955719 8082.648037 10156.423045 8058.174583 10468.725049 7717.538257 L 11923.29012 6129.894097 C 11963.110048 6077.816864 12036.776914 6073.263663 12083.707543 6119.93397 L 14444.175968 9942.630513 C 14672.571696 10312.293493 15145.291123 10446.612913 15533.819845 10252.248159 C 15978.665323 10029.710476 16300.069025 9471.658818 16033.559937 9051.626055 Z M 16033.559937 9051.626055 " stroke="#F8C140" stroke-width="529.565" stroke-opacity="1" stroke-miterlimit="10"/></svg>