<svg width="772" height="670" viewBox="0 0 772 670" fill="none" xmlns="http://www.w3.org/2000/svg">
<g style="mix-blend-mode:overlay">
<path d="M1097.29 363.897C1197.38 253.799 1190.35 81.8369 1081.68 -19.7791C1035.28 -63.3067 975.107 -89.2202 911.6 -93.0247C836.953 -97.5437 765.375 -123.812 702.859 -164.965C519.007 -286.035 267.88 -257.447 115.975 -87.7808C-50.2352 97.9553 -34.286 385.622 151.16 552.122C326.723 709.754 590.634 703.978 758.899 550.817C814.479 500.263 881.345 463.241 954.639 446.905C1009.63 434.664 1059.47 405.661 1097.29 363.897Z" stroke="#0D4A31" stroke-width="2" stroke-miterlimit="10"/>
</g>
<g style="mix-blend-mode:overlay">
<path d="M1071.07 358.338C1165.89 253.991 1159.25 91.0428 1056.25 -5.25674C1012.28 -46.5066 955.254 -71.0612 895.069 -74.6601C824.289 -78.8649 756.529 -103.828 697.275 -142.855C523.066 -257.569 284.987 -230.479 141.106 -69.7062C-16.3809 106.315 -1.27752 378.902 174.478 536.703C340.834 686.07 590.922 680.609 750.391 535.447C802.999 487.551 866.385 452.462 935.861 436.972C987.981 425.384 1035.22 397.91 1071.07 358.338V358.338Z" stroke="#0D4A31" stroke-width="2" stroke-miterlimit="10"/>
</g>
<g style="mix-blend-mode:overlay">
<path d="M1044.78 352.78C1134.36 254.185 1128.08 100.251 1030.79 9.26743C989.247 -29.6875 935.388 -52.8812 878.543 -56.2936C811.653 -60.3534 747.639 -83.8665 691.671 -120.719C527.08 -229.101 302.172 -203.51 166.241 -51.6055C17.4777 114.677 31.7595 372.209 197.801 521.286C354.877 662.389 591.215 657.241 741.863 520.102C791.572 474.84 851.478 441.709 917.111 427.065C966.326 416.104 1010.93 390.151 1044.78 352.78V352.78Z" stroke="#0D4A31" stroke-width="2" stroke-miterlimit="10"/>
</g>
<g style="mix-blend-mode:overlay">
<path d="M1018.58 347.198C1102.94 254.402 1097.02 109.458 1005.41 23.815C966.305 -12.8763 915.589 -34.7205 862.061 -37.9279C799.086 -41.7461 738.817 -63.8817 686.112 -98.5834C531.163 -200.634 319.401 -176.517 191.42 -33.5056C51.2601 123.039 64.7686 365.515 221.095 505.868C369.061 638.779 591.504 633.946 733.404 504.757C780.188 462.129 836.615 430.931 898.382 417.157C944.718 406.826 986.712 382.385 1018.58 347.198V347.198Z" stroke="#0D4A31" stroke-width="2" stroke-miterlimit="10"/>
</g>
<g style="mix-blend-mode:overlay">
<path d="M992.335 341.616C1071.45 254.62 1065.89 118.641 979.986 38.3146C943.316 3.87273 895.746 -16.6463 845.529 -19.6827C786.469 -23.2592 729.946 -44.0173 680.527 -76.5683C535.196 -172.264 336.604 -149.669 216.549 -15.5504C85.1856 131.376 97.8 358.798 244.412 490.427C383.17 615.024 591.816 610.481 724.822 489.388C768.731 449.442 821.63 420.154 879.482 407.225C922.988 397.575 962.423 374.649 992.335 341.616V341.616Z" stroke="#0D4A31" stroke-width="2" stroke-miterlimit="10"/>
</g>
<g style="mix-blend-mode:overlay">
<path d="M966.093 336.082C991.68 307.914 1008.79 273.088 1015.44 235.62C1022.09 198.152 1018.02 159.566 1003.69 124.312C989.363 89.058 965.365 58.5704 934.461 36.3643C903.558 14.1582 867.008 1.1376 829.026 -1.19633C773.88 -4.55534 721.103 -23.9361 674.947 -54.3605C539.233 -143.773 353.811 -122.628 241.732 2.62182C119.043 139.713 130.812 352.055 267.709 474.961C397.285 591.318 592.107 587.065 716.318 473.994C757.399 436.683 806.697 409.352 860.804 397.293C901.382 388.259 938.165 366.875 966.093 336.082V336.082Z" stroke="#0D4A31" stroke-width="2" stroke-miterlimit="10"/>
</g>
<g style="mix-blend-mode:overlay">
<path d="M939.848 330.5C963.626 304.333 979.523 271.978 985.706 237.167C991.89 202.355 988.106 166.505 974.794 133.75C961.481 100.996 939.18 72.6718 910.464 52.0447C881.748 31.4177 847.786 19.3279 812.496 17.1698C761.265 14.0525 712.233 -3.95082 669.363 -32.1761C607.026 -72.9185 532.156 -89.9815 458.321 -80.2728C384.486 -70.5641 316.572 -34.7261 266.887 20.7463C152.898 148.123 163.845 345.41 291.052 459.592C411.445 567.684 592.42 563.721 707.811 458.674C745.871 424.02 791.762 398.622 842.026 387.53C879.751 379.106 913.931 359.179 939.848 330.5V330.5Z" stroke="#0D4A31" stroke-width="2" stroke-miterlimit="10"/>
</g>
<g style="mix-blend-mode:overlay">
<path d="M913.608 324.942C935.564 300.773 950.243 270.89 955.951 238.739C961.66 206.588 958.166 173.479 945.872 143.228C933.578 112.977 912.985 86.8169 886.467 67.7629C859.949 48.7089 828.586 37.5373 795.994 35.536C748.678 32.6603 703.392 16.0344 663.785 -10.0401C606.209 -47.6724 537.056 -63.4326 468.859 -54.4641C400.662 -45.4957 337.935 -12.3921 292.047 38.8467C186.758 156.484 196.859 338.692 314.327 444.175C425.489 544.003 592.69 540.354 699.284 443.329C734.445 411.31 776.831 387.869 823.253 377.502C858.088 369.763 889.66 351.397 913.608 324.942V324.942Z" stroke="#0D4A31" stroke-width="2" stroke-miterlimit="10"/>
</g>
</svg>
