<svg width="404" height="290" viewBox="0 0 404 290" fill="none" xmlns="http://www.w3.org/2000/svg">
<path opacity="0.1" d="M145.801 41.7348C128.818 50.7683 115.268 58.7178 105.15 65.5833C95.0325 72.4487 86.541 81.1209 79.6755 91.5998C73.1714 102.079 69.9193 114.726 69.9193 129.54C75.3394 137.49 81.6629 143.813 88.8897 148.511C96.4779 153.208 105.692 156.46 116.532 158.267C154.473 165.133 173.443 185.548 173.443 219.514C173.443 239.749 166.397 256.552 152.305 269.921C138.213 283.291 119.965 289.976 97.5619 289.976C78.4108 289.976 61.4278 285.278 46.6129 275.883C31.7979 266.488 20.2351 253.3 11.9242 236.317C3.97474 219.334 0 200.002 0 178.321C0 151.944 5.78144 126.108 17.3443 100.814C29.2686 75.1588 46.4322 53.2977 68.8353 35.2307C91.2384 17.1637 117.436 5.4201 147.427 0C157.544 8.31083 164.048 18.4284 166.939 30.3526L145.801 41.7348ZM376.155 41.7348C359.172 50.7683 345.622 58.7178 335.504 65.5833C325.387 72.4487 316.895 81.1209 310.03 91.5998C303.526 102.079 300.274 114.726 300.274 129.54C310.391 145.078 325.929 154.654 346.887 158.267C384.466 165.133 403.256 185.548 403.256 219.514C403.256 239.749 396.21 256.552 382.117 269.921C368.386 283.291 350.319 289.976 327.916 289.976C308.765 289.976 291.782 285.278 276.967 275.883C262.152 266.488 250.589 253.3 242.279 236.317C234.329 219.334 230.354 200.002 230.354 178.321C230.354 151.944 236.136 126.108 247.699 100.814C259.623 75.1588 276.787 53.2977 299.19 35.2307C321.593 17.1637 347.79 5.4201 377.781 0C387.899 8.31083 394.403 18.4284 397.294 30.3526L376.155 41.7348Z" fill="#0D4A31"/>
</svg>
